<svg width="24" height="24" viewBox="0 0 24 24" fill="none" xmlns="http://www.w3.org/2000/svg">
	<style>
		path {
			fill: black;
		}
		@media (prefers-color-scheme: dark) {
			path {
				fill: white;
			}
		}
	</style>
	<path
		d="M0 11.2426C0 10.447 0.316071 9.68393 0.87868 9.12132L5.58579 4.41421C6.36684 3.63316 7.63316 3.63317 8.41421 4.41421L14 10V22H3C1.34315 22 0 20.6569 0 19V11.2426Z"
		fill="white"
	/>
	<path
		fill-rule="evenodd"
		clip-rule="evenodd"
		d="M18.4142 4.4142L22 8.00002L14.8284 8.00002L13.4142 6.58581L15.5858 4.41423C16.3668 3.63318 17.6331 3.63315 18.4142 4.4142Z"
		fill="white"
	/>
	<path d="M16 10H22C23.1046 10 24 10.8954 24 12V19C24 20.6569 22.6569 22 21 22H16V10Z" fill="white" />
</svg>
